<svg width="132" height="38" viewBox="0 0 132 38" fill="none" xmlns="http://www.w3.org/2000/svg">
<path d="M26.46 24.35H17.76V33.25H9.66001V24.35H0.96001V16.7H9.66001V7.75H17.76V16.7H26.46V24.35ZM41.9522 31.15C43.0855 30.25 43.6022 29.8333 43.5022 29.9C46.7689 27.2 49.3355 24.9833 51.2022 23.25C53.1022 21.5167 54.7022 19.7 56.0022 17.8C57.3022 15.9 57.9522 14.05 57.9522 12.25C57.9522 10.8833 57.6355 9.81666 57.0022 9.05C56.3689 8.28333 55.4189 7.9 54.1522 7.9C52.8855 7.9 51.8855 8.38333 51.1522 9.35C50.4522 10.2833 50.1022 11.6167 50.1022 13.35H41.8522C41.9189 10.5167 42.5189 8.15 43.6522 6.25C44.8189 4.35 46.3355 2.95 48.2022 2.05C50.1022 1.15 52.2022 0.699997 54.5022 0.699997C58.4689 0.699997 61.4522 1.71666 63.4522 3.75C65.4855 5.78333 66.5022 8.43333 66.5022 11.7C66.5022 15.2667 65.2855 18.5833 62.8522 21.65C60.4189 24.6833 57.3189 27.65 53.5522 30.55H67.0522V37.5H41.9522V31.15ZM70.8167 19.25C70.8167 13.5167 71.9167 9 74.1167 5.7C76.35 2.4 79.9333 0.749997 84.8667 0.749997C89.8 0.749997 93.3667 2.4 95.5667 5.7C97.8 9 98.9167 13.5167 98.9167 19.25C98.9167 25.05 97.8 29.6 95.5667 32.9C93.3667 36.2 89.8 37.85 84.8667 37.85C79.9333 37.85 76.35 36.2 74.1167 32.9C71.9167 29.6 70.8167 25.05 70.8167 19.25ZM90.5167 19.25C90.5167 15.8833 90.15 13.3 89.4167 11.5C88.6833 9.66666 87.1667 8.75 84.8667 8.75C82.5667 8.75 81.05 9.66666 80.3167 11.5C79.5833 13.3 79.2167 15.8833 79.2167 19.25C79.2167 21.5167 79.35 23.4 79.6167 24.9C79.8833 26.3667 80.4167 27.5667 81.2167 28.5C82.05 29.4 83.2667 29.85 84.8667 29.85C86.4667 29.85 87.6667 29.4 88.4667 28.5C89.3 27.5667 89.85 26.3667 90.1167 24.9C90.3833 23.4 90.5167 21.5167 90.5167 19.25ZM103.434 19.25C103.434 13.5167 104.534 9 106.734 5.7C108.967 2.4 112.551 0.749997 117.484 0.749997C122.417 0.749997 125.984 2.4 128.184 5.7C130.417 9 131.534 13.5167 131.534 19.25C131.534 25.05 130.417 29.6 128.184 32.9C125.984 36.2 122.417 37.85 117.484 37.85C112.551 37.85 108.967 36.2 106.734 32.9C104.534 29.6 103.434 25.05 103.434 19.25ZM123.134 19.25C123.134 15.8833 122.767 13.3 122.034 11.5C121.301 9.66666 119.784 8.75 117.484 8.75C115.184 8.75 113.667 9.66666 112.934 11.5C112.201 13.3 111.834 15.8833 111.834 19.25C111.834 21.5167 111.967 23.4 112.234 24.9C112.501 26.3667 113.034 27.5667 113.834 28.5C114.667 29.4 115.884 29.85 117.484 29.85C119.084 29.85 120.284 29.4 121.084 28.5C121.917 27.5667 122.467 26.3667 122.734 24.9C123.001 23.4 123.134 21.5167 123.134 19.25Z" fill="#464646"/>
</svg>
