<svg width="71" height="37" viewBox="0 0 71 37" fill="none" xmlns="http://www.w3.org/2000/svg">
<path d="M26.46 23.35H17.76V32.25H9.66001V23.35H0.96001V15.7H9.66001V6.75H17.76V15.7H26.46V23.35ZM67.9522 7.95H52.3522V14.85C53.0189 14.1167 53.9522 13.5167 55.1522 13.05C56.3522 12.5833 57.6522 12.35 59.0522 12.35C61.5522 12.35 63.6189 12.9167 65.2522 14.05C66.9189 15.1833 68.1355 16.65 68.9022 18.45C69.6689 20.25 70.0522 22.2 70.0522 24.3C70.0522 28.2 68.9522 31.3 66.7522 33.6C64.5522 35.8667 61.4522 37 57.4522 37C54.7855 37 52.4689 36.55 50.5022 35.65C48.5355 34.7167 47.0189 33.4333 45.9522 31.8C44.8855 30.1667 44.3022 28.2833 44.2022 26.15H52.5522C52.7522 27.1833 53.2355 28.05 54.0022 28.75C54.7689 29.4167 55.8189 29.75 57.1522 29.75C58.7189 29.75 59.8855 29.25 60.6522 28.25C61.4189 27.25 61.8022 25.9167 61.8022 24.25C61.8022 22.6167 61.4022 21.3667 60.6022 20.5C59.8022 19.6333 58.6355 19.2 57.1022 19.2C55.9689 19.2 55.0355 19.4833 54.3022 20.05C53.5689 20.5833 53.0855 21.3 52.8522 22.2H44.6022V0.45H67.9522V7.95Z" fill="#464646"/>
</svg>
