<svg width="34" height="34" viewBox="0 0 34 34" fill="none" xmlns="http://www.w3.org/2000/svg">
<g clip-path="url(#clip0_96919_105)">
<path d="M11.5772 14.589L10.5 18H14.0837L12.9858 14.589C12.7715 13.8891 12.5768 13.1833 12.402 12.4726C12.3621 12.315 12.3219 12.1575 12.2815 12H12.24L12.0254 12.8686C11.886 13.4477 11.7429 14.0492 11.5772 14.589ZM23.4072 15.3288C21.8329 15.3288 21.17 16.7466 21.0664 17.774H25.4994C25.5182 16.8493 25.1039 15.3288 23.4072 15.3288Z" fill="#2A7AE4"/>
<path fill-rule="evenodd" clip-rule="evenodd" d="M7.32769 0.533539C13.7562 -0.177846 20.2438 -0.177846 26.6724 0.533539C30.1844 0.924958 33.0158 3.6852 33.4282 7.20429C34.1906 13.7119 34.1906 20.2861 33.4282 26.7937C33.0158 30.3128 30.1844 33.073 26.6742 33.4663C20.2451 34.1779 13.7568 34.1779 7.32769 33.4663C3.81569 33.073 0.984257 30.3128 0.571841 26.7956C-0.190614 20.2873 -0.190614 13.7125 0.571841 7.20429C0.984257 3.6852 3.81569 0.924958 7.32769 0.533539ZM15.6093 23.4611L14.3702 19.582H10.013L8.83495 23.4611H6.25134L10.6455 9.77251H13.8394L18.2965 23.4611H15.6093ZM27.512 18.1603C27.512 18.6275 27.4713 18.993 27.4306 19.2164H20.7987C20.8597 21.0037 22.2634 21.7754 23.8502 21.7754C25.0098 21.7754 25.8439 21.613 26.5966 21.3286L26.9627 23.0549C26.1083 23.4002 24.9284 23.6845 23.5044 23.6845C20.2901 23.6845 18.3982 21.6942 18.3982 18.6681C18.3982 15.9263 20.0663 13.347 23.2399 13.347C26.4745 13.347 27.512 15.9872 27.512 18.1603Z" fill="#2A7AE4"/>
</g>
<defs>
<clipPath id="clip0_96919_105">
<rect width="34" height="34" fill="white"/>
</clipPath>
</defs>
</svg>
