<?xml version="1.0" encoding="utf-8"?>
<!-- Generator: Adobe Illustrator 27.9.0, SVG Export Plug-In . SVG Version: 6.00 Build 0)  -->
<svg version="1.1" id="Capa_1" xmlns="http://www.w3.org/2000/svg" xmlns:xlink="http://www.w3.org/1999/xlink" x="0px" y="0px"
	 viewBox="0 0 34 34" style="enable-background:new 0 0 34 34;" xml:space="preserve">
<style type="text/css">
	.st0{fill:#2A7AE4;}
</style>
<path class="st0" d="M2.3,0c9.8,0,19.5,0,29.3,0c-0.2,2.4-0.4,4.8-0.6,7.1c-0.5,5.6-1,11.3-1.5,16.9c-0.2,1.8-0.3,3.6-0.5,5.3
	c0,0.6-0.3,0.9-0.9,1.1c-3.5,1.1-7,2.3-10.5,3.5c-0.4,0.1-0.9,0.1-1.3,0c-3.6-1.2-7.1-2.4-10.7-3.5c-0.5-0.2-0.8-0.5-0.8-1
	C4.1,20,3.3,10.7,2.5,1.4C2.5,0.9,2.4,0.5,2.3,0z M9.1,19c0.2,1.8,0.3,3.4,0.4,5c0,0.5,0.3,0.7,0.7,0.8c2.1,0.6,4.2,1.2,6.4,1.8
	c0.3,0.1,0.7,0.1,1,0c2.1-0.6,4.2-1.2,6.3-1.9c0.3-0.1,0.6-0.5,0.7-0.9c0.2-2.1,0.4-4.3,0.6-6.4c0.1-1.3,0.2-2.7,0.4-4.1
	c-2.7,0-5.2,0-7.8,0c0.2-0.3,0.4-0.4,0.6-0.5c2.3-1,4.6-1.9,6.9-2.9c0.2-0.1,0.6-0.3,0.6-0.5c0.2-1.1,0.2-2.2,0.3-3.3
	c-6.2,0-12.3,0-18.5,0c0.2,1.2,0.3,2.4,0.5,3.6c3,0,5.9,0,8.8,0c-2.5,1.2-5.1,2.3-7.6,3.4C9,13.2,8.6,13.7,8.6,14c0,1,0.1,1.9,0.2,3
	c4.3,0,8.4,0,12.7,0c-0.1,1.5-0.2,2.8-0.2,4.2c0,0.2-0.1,0.5-0.2,0.5c-1.4,0.4-2.9,1-4.3,1c-1.2,0-2.4-0.5-3.7-0.8
	C13,21,13,20.3,12.9,19.6c0-0.2-0.3-0.6-0.6-0.6C11.3,18.9,10.2,19,9.1,19z"/>
</svg>
