<?xml version="1.0" encoding="utf-8"?>
<!-- Generator: Adobe Illustrator 27.9.0, SVG Export Plug-In . SVG Version: 6.00 Build 0)  -->
<svg version="1.1" id="Capa_1" xmlns="http://www.w3.org/2000/svg" xmlns:xlink="http://www.w3.org/1999/xlink" x="0px" y="0px"
	 viewBox="0 0 34 34" style="enable-background:new 0 0 34 34;" xml:space="preserve">
<style type="text/css">
	.st0{fill:#2A7AE4;}
</style>
<g id="dwwqHo_00000126324474551851368570000012488128409171035576_">
	<g>
		<path class="st0" d="M0.1,17.1c0-2.8,0-5.7,0-8.5c0-1.6,0.3-3.1,1-4.5C2.6,1.4,5,0.2,8,0.2c5.8-0.1,11.6-0.1,17.4-0.1
			c0.7,0,1.5,0.1,2.2,0.2c3.5,0.6,5.9,3.1,6.2,6.6c0.2,2,0.1,4,0.1,6.1c0,4.5,0.1,9-0.1,13.5c-0.1,4-3,6.9-7,7.1
			c-2.9,0.2-5.7,0.1-8.6,0.1c-3.4,0-6.7,0-10.1-0.1c-4.6,0-7.7-3-7.9-7.6C0.1,23.2,0.2,20.2,0.1,17.1C0.2,17.1,0.1,17.1,0.1,17.1z
			 M17.1,1.4C17.1,1.5,17.1,1.5,17.1,1.4c-3,0-5.9,0-8.9,0.1c-1.1,0-2.3,0.3-3.3,0.8C2.5,3.4,1.6,5.5,1.6,8c-0.1,5-0.1,10-0.1,15
			c0,1.4,0,2.8,0.2,4.2c0.4,2.9,2.3,4.7,5.1,5.1c1.7,0.2,3.5,0.2,5.2,0.2c4.5,0,8.9,0,13.4,0c2.3,0,4.4-0.6,5.9-2.6
			c1.1-1.5,1.2-3.2,1.2-5c0-5.5,0-11.1,0-16.6c0-1.1-0.2-2.3-0.7-3.3c-1.1-2.5-3.3-3.4-5.8-3.4C23,1.4,20,1.4,17.1,1.4z"/>
		<path class="st0" d="M22.5,17.3c3.4,0.3,4.8,1.5,5.4,3.8c0.4,1.9-0.7,4.1-2.6,5c-2,0.9-4.2,0.4-5.4-1.3c-1.2-1.6-1.7-3.5-2.2-5.4
			c-0.1-0.5-0.1-1,0.5-1.1C19.9,17.9,21.6,17.5,22.5,17.3z"/>
		<path class="st0" d="M21.6,10.5c-0.1,2-1.1,3.4-2.2,4.7c-0.5,0.7-1.2,1.3-1.8,1.9c-0.4,0.4-0.8,0.4-1.2,0c-1.5-1.4-2.9-3-3.6-5
			c-0.7-1.9-0.1-3.7,1.5-5c1.4-1.1,3.6-1.2,5.1-0.2C20.8,7.8,21.5,9,21.6,10.5z"/>
		<path class="st0" d="M6.1,21.8c0.1-2.5,1.9-4.4,4.4-4.3c1.7,0,3.4,0.4,5.1,0.7c0.7,0.1,1,0.6,0.8,1.3c-0.6,1.6-1.1,3.3-1.9,4.9
			c-1,1.9-3.1,2.6-5.1,2C7.3,25.7,6.1,23.9,6.1,21.8z"/>
	</g>
</g>
</svg>
