<svg width="34" height="34" viewBox="0 0 34 34" fill="none" xmlns="http://www.w3.org/2000/svg">
<path d="M17 1.82141H11.0354C8.3421 1.82141 6.15881 4.0047 6.15881 6.70041V6.69798C6.15881 9.3937 8.33967 11.5794 11.0354 11.5794H17M17 1.82141V11.5794M17 1.82141H22.9645C25.6578 1.82141 27.8411 4.0047 27.8411 6.70041V6.69798C27.8411 9.3937 25.6602 11.5794 22.9645 11.5794H17" stroke="#2A7AE4" stroke-width="2.28571" stroke-linecap="round" stroke-linejoin="round"/>
<path d="M27.8411 17C27.8411 16.2881 27.7009 15.5833 27.4285 14.9256C27.1561 14.268 26.7568 13.6704 26.2535 13.1671C25.7501 12.6637 25.1525 12.2644 24.4949 11.992C23.8372 11.7196 23.1324 11.5794 22.4205 11.5794C21.7087 11.5794 21.0038 11.7196 20.3462 11.992C19.6885 12.2644 19.091 12.6637 18.5876 13.1671C18.0843 13.6704 17.685 14.268 17.4126 14.9256C17.1402 15.5833 17 16.2881 17 17C17 18.4376 17.5711 19.8163 18.5876 20.8329C19.6042 21.8495 20.9829 22.4206 22.4205 22.4206C23.8582 22.4206 25.2369 21.8495 26.2535 20.8329C27.27 19.8163 27.8411 18.4376 27.8411 17ZM6.15881 27.2995C6.15881 24.6038 8.3421 22.4206 11.0354 22.4206H17V26.758C17 29.7524 14.5714 32.1786 11.5794 32.1786H11.0354C8.33967 32.1786 6.15881 29.9928 6.15881 27.2995Z" stroke="#2A7AE4" stroke-width="2.28571" stroke-linecap="round" stroke-linejoin="round"/>
<path d="M6.15881 17C6.15881 14.0055 8.58496 11.5794 11.5794 11.5794H17V22.4206H11.5794C8.58496 22.4206 6.15881 19.992 6.15881 17Z" stroke="#2A7AE4" stroke-width="2.28571" stroke-linecap="round" stroke-linejoin="round"/>
</svg>
