<svg width="32" height="32" viewBox="0 0 32 32" fill="none" xmlns="http://www.w3.org/2000/svg">
<path d="M26.03 8.35005C25.01 6.65005 23.14 5.80005 21.1 5.80005H10.9C8.86 5.80005 6.99 6.65005 5.97 8.35005C2.06 14.3 1.21 23.31 3.93 25.18C6.65 27.05 12.77 18.89 16 18.89C19.23 18.89 25.18 27.05 28.07 25.18C30.79 23.31 29.94 14.3 26.03 8.35005ZM12.6 14.3H10.9V16H9.2V14.3H7.5V12.6H9.2V10.9H10.9V12.6H12.6V14.3ZM21.78 15.15C21.78 16 21.1 16.68 20.25 16.68C19.4 16.68 18.72 16 18.72 15.15C18.72 14.3 19.4 13.62 20.25 13.62C21.1 13.62 21.78 14.3 21.78 15.15ZM25.01 11.75C25.01 12.6 24.33 13.28 23.48 13.28C22.63 13.28 21.95 12.6 21.95 11.75C21.95 10.9 22.63 10.22 23.48 10.22C24.33 10.22 25.01 10.9 25.01 11.75Z" fill="#2A7AE4"/>
</svg>
