<svg width="32" height="32" viewBox="0 0 32 32" fill="none" xmlns="http://www.w3.org/2000/svg">
<g clip-path="url(#clip0_1_305)">
<g clip-path="url(#clip1_1_305)">
<path d="M11.4957 28.7194C11.6108 28.8442 11.672 29.0094 11.666 29.1791C11.66 29.3488 11.5873 29.5093 11.4637 29.6256L10.0736 30.9255C9.94947 31.0408 9.78465 31.1021 9.61533 31.096C9.44601 31.0899 9.28604 31.0168 9.17056 30.8928L1.0752 22.1684C0.960161 22.0435 0.899057 21.8782 0.905169 21.7085C0.911281 21.5388 0.984114 21.3784 1.10784 21.2621L2.49984 19.9642C2.56126 19.907 2.63335 19.8625 2.71199 19.8332C2.79062 19.8039 2.87426 19.7904 2.95812 19.7934C3.04199 19.7964 3.12443 19.816 3.20075 19.8509C3.27706 19.8858 3.34575 19.9354 3.40288 19.9968L11.4957 28.7194ZM21.8253 12.3034C21.9403 12.4283 22.0014 12.5935 21.9953 12.7632C21.9892 12.9329 21.9164 13.0934 21.7926 13.2096L13.0438 21.3824C12.9197 21.4978 12.7549 21.5591 12.5856 21.553C12.4162 21.5469 12.2563 21.4738 12.1408 21.3498L10.0525 19.0964C9.93744 18.9715 9.87634 18.8062 9.88245 18.6365C9.88856 18.4668 9.96139 18.3064 10.0851 18.1901L18.832 10.0173C18.8934 9.96016 18.9654 9.91566 19.044 9.88636C19.1226 9.85706 19.2062 9.84354 19.29 9.84657C19.3738 9.8496 19.4562 9.86913 19.5324 9.90403C19.6087 9.93893 19.6773 9.98852 19.7344 10.05L21.8253 12.3034ZM14.4723 25.9373C14.7117 26.1952 14.697 26.6029 14.4397 26.8436L13.0477 28.1428C12.9863 28.1999 12.9142 28.2445 12.8355 28.2738C12.7569 28.3031 12.6733 28.3166 12.5894 28.3136C12.5055 28.3105 12.4231 28.291 12.3468 28.2561C12.2705 28.2212 12.2018 28.1716 12.1446 28.1101L4.05376 19.3856C3.93864 19.2608 3.87742 19.0956 3.88342 18.9259C3.88941 18.7563 3.96212 18.5958 4.08576 18.4794L5.4752 17.1808C5.59933 17.0655 5.76415 17.0042 5.93348 17.0103C6.1028 17.0164 6.26276 17.0895 6.37824 17.2135L14.4723 25.9373ZM27.9526 12.6164C28.0676 12.7413 28.1286 12.9066 28.1224 13.0763C28.1161 13.246 28.0432 13.4064 27.9194 13.5226L26.528 14.8218C26.4038 14.9372 26.239 14.9987 26.0695 14.9927C25.9001 14.9867 25.74 14.9137 25.6243 14.7898L17.5322 6.06724C17.4169 5.94251 17.3556 5.77728 17.3616 5.60754C17.3675 5.43779 17.4404 5.2773 17.5642 5.16101L18.9594 3.8586C19.0207 3.80144 19.0928 3.75694 19.1713 3.72764C19.2499 3.69834 19.3335 3.68482 19.4173 3.68785C19.5011 3.69088 19.5835 3.71041 19.6598 3.74531C19.736 3.78021 19.8047 3.8298 19.8618 3.89124L27.9526 12.6164ZM30.9248 9.83877C31.0397 9.96384 31.1007 10.1292 31.0946 10.2989C31.0885 10.4687 31.0158 10.6292 30.8922 10.7456L29.5034 12.0442C29.442 12.1014 29.37 12.146 29.2915 12.1753C29.2129 12.2047 29.1293 12.2182 29.0455 12.2153C28.9617 12.2123 28.8793 12.1928 28.803 12.158C28.7267 12.1231 28.6581 12.0736 28.601 12.0122L20.5101 3.2858C20.3951 3.16081 20.3339 2.99554 20.3399 2.8258C20.3459 2.65605 20.4186 2.4955 20.5421 2.37892L21.9322 1.0778C21.9934 1.02054 22.0653 0.975939 22.1438 0.946547C22.2224 0.917155 22.3059 0.903555 22.3897 0.906529C22.4735 0.909502 22.5558 0.928989 22.6321 0.963872C22.7083 0.998755 22.7769 1.04835 22.8339 1.1098L30.9248 9.83877Z" fill="#2A7AE4"/>
</g>
</g>
<defs>
<clipPath id="clip0_1_305">
<rect width="32" height="32" fill="white"/>
</clipPath>
<clipPath id="clip1_1_305">
<rect width="32" height="32" fill="white"/>
</clipPath>
</defs>
</svg>
