<svg width="34" height="34" viewBox="0 0 34 34" fill="none" xmlns="http://www.w3.org/2000/svg">
<g clip-path="url(#clip0_96919_101)">
<path d="M14.3698 14C14.8657 15.615 15.3757 17.23 15.8857 18.8733H12.8823C13.3923 17.23 13.874 15.615 14.3698 14Z" fill="#2A7AE4"/>
<path d="M25.5 0H8.5C6.24566 0 4.08365 0.895533 2.48959 2.48959C0.895533 4.08365 0 6.24566 0 8.5V25.5C0 27.7543 0.895533 29.9163 2.48959 31.5104C4.08365 33.1045 6.24566 34 8.5 34H25.5C27.7543 34 29.9163 33.1045 31.5104 31.5104C33.1045 29.9163 34 27.7543 34 25.5V8.5C34 6.24566 33.1045 4.08365 31.5104 2.48959C29.9163 0.895533 27.7543 0 25.5 0ZM21.233 25.126H18.581C18.4752 25.1407 18.3679 25.1133 18.2821 25.0497C18.1963 24.9862 18.1388 24.8915 18.122 24.786C17.799 23.834 17.459 22.882 17.136 21.913C17.1258 21.8522 17.1035 21.7942 17.0704 21.7422C17.0373 21.6903 16.9941 21.6455 16.9433 21.6106C16.8926 21.5757 16.8353 21.5514 16.775 21.5391C16.7146 21.5268 16.6524 21.5267 16.592 21.539H12.07C12.0072 21.5242 11.942 21.5228 11.8786 21.5349C11.8152 21.547 11.7551 21.5723 11.7022 21.6092C11.6492 21.6461 11.6047 21.6937 11.5714 21.749C11.5381 21.8043 11.5168 21.866 11.509 21.93C11.22 22.882 10.897 23.8 10.608 24.752C10.5999 24.8121 10.5796 24.8698 10.5482 24.9217C10.5169 24.9736 10.4752 25.0184 10.4258 25.0535C10.3763 25.0886 10.3202 25.1131 10.2609 25.1256C10.2016 25.1381 10.1404 25.1382 10.081 25.126H7.752C7.344 25.126 7.31 25.126 7.446 24.701L11.118 14.11C11.458 13.141 11.798 12.172 12.104 11.203C12.1905 10.9162 12.2363 10.6186 12.24 10.319C12.24 9.962 12.376 9.877 12.699 9.894H15.946C16.184 9.894 16.303 9.894 16.388 10.217L20.57 21.998C20.893 22.916 21.216 23.817 21.522 24.718C21.658 25.092 21.641 25.126 21.233 25.126ZM26.435 24.837C26.435 25.126 26.316 25.211 26.044 25.211H23.596C23.256 25.211 23.171 25.075 23.171 24.769V14.093C23.171 13.753 23.273 13.617 23.63 13.634H26.027C26.299 13.634 26.435 13.634 26.435 14.008C26.4231 17.612 26.4231 21.2211 26.435 24.837ZM24.735 12.427C24.4914 12.4425 24.2473 12.4053 24.0194 12.318C23.7915 12.2307 23.585 12.0954 23.414 11.9212C23.243 11.747 23.1116 11.538 23.0286 11.3085C22.9456 11.079 22.913 10.8343 22.933 10.591C22.9354 10.3493 22.9859 10.1104 23.0816 9.88845C23.1772 9.66645 23.3162 9.46572 23.4902 9.29798C23.6643 9.13024 23.87 8.99885 24.0954 8.91146C24.3208 8.82407 24.5614 8.78244 24.803 8.789C25.0382 8.78825 25.2709 8.83629 25.4866 8.9301C25.7022 9.02391 25.8961 9.16144 26.0558 9.334C26.2156 9.50655 26.3379 9.71039 26.4148 9.9326C26.4918 10.1548 26.5218 10.3906 26.503 10.625C26.5169 10.8567 26.4833 11.0888 26.4041 11.3069C26.3249 11.5251 26.2019 11.7248 26.0426 11.8936C25.8834 12.0624 25.6912 12.1968 25.478 12.2886C25.2648 12.3803 25.0351 12.4274 24.803 12.427H24.735Z" fill="#2A7AE4"/>
</g>
<defs>
<clipPath id="clip0_96919_101">
<rect width="34" height="34" fill="white"/>
</clipPath>
</defs>
</svg>
