<?xml version="1.0" encoding="utf-8"?>
<!-- Generator: Adobe Illustrator 27.9.0, SVG Export Plug-In . SVG Version: 6.00 Build 0)  -->
<svg version="1.1" id="Capa_1" xmlns="http://www.w3.org/2000/svg" xmlns:xlink="http://www.w3.org/1999/xlink" x="0px" y="0px"
	 viewBox="0 0 34 34" style="enable-background:new 0 0 34 34;" xml:space="preserve">
<style type="text/css">
	.st0{fill:#2A7AE4;}
</style>
<path class="st0" d="M25.4,0H8.6C3.9,0,0,3.9,0,8.6v16.9C0,30.1,3.9,34,8.6,34h16.9c4.7,0,8.6-3.9,8.6-8.6V8.6C34,3.9,30.1,0,25.4,0
	z M12.1,25.1c-1,0-2,0-2.9,0c-0.2,0-0.4-0.5-0.4-0.8c0-3.8,0-7.6,0-11.4v-3c1,0,1.8,0,2.7,0c0.5,0,0.6,0.3,0.6,0.8V25.1z M24.7,24.5
	c-2,0.8-4.1,1.1-6.2,0.6c-3.9-0.9-4.9-4.7-3.8-7.7c0.9-2.6,3-3.8,5.7-4.1c0.5,0,0.9,0,1.5-0.1c0-1.3,0-2.6,0-3.8
	c0-0.6,0.2-0.9,0.8-0.8c0.8,0,1.5,0,2.4,0c0,0.4,0,0.7,0,1c0,4.7,0,9.5,0,14.2C25.1,24.1,24.9,24.5,24.7,24.5z M18.3,17.3
	c-0.9,1.2-0.8,2.6-0.2,3.8c0.6,1.3,1.9,1.4,3.1,1.4c0.2,0,0.6-0.3,0.6-0.4c0-2,0-4,0-6C20.3,15.9,19.1,16.2,18.3,17.3z"/>
</svg>
