<svg width="87" height="60" viewBox="0 0 87 60" fill="none" xmlns="http://www.w3.org/2000/svg">
<path d="M0.523376 0.279999C4.04664 12.4877 9.06439 22.8294 14.9366 34.2597L19.942 32.7406C13.706 23.2205 8.59238 15.2308 6.83692 4.99775L11.2376 6.1451C13.4854 19.8358 25.7574 30.3709 31.0719 36.746C31.9627 39.7211 31.1789 42.6962 30.1791 45.1612C39.5532 49.7185 49.1888 55.6108 59.8348 57.7841C63.8328 54.6594 67.8737 52.7499 72.2073 59.1867L73.9931 54.0864L78.2023 53.959L75.8424 48.7953C79.9055 50.2557 84.9839 45.8816 85.0901 44.6514C85.3943 41.1248 85.1802 38.9579 87.0034 36.1088L76.8629 37.5112C76.6147 40.4638 77.1504 43.8236 74.1206 45.5439C58.0588 54.6635 53.1784 34.2178 54.6051 25.6533C48.0025 22.7441 47.1598 19.3062 43.2531 13.2855L39.1714 12.7754L36.3653 15.1981L29.0949 5.8904L0.523376 0.279999Z" fill="#464646"/>
</svg>
