<svg width="34" height="34" viewBox="0 0 34 34" fill="none" xmlns="http://www.w3.org/2000/svg">
<g clip-path="url(#clip0_96919_50)">
<path d="M13.9976 14.4275C14.0195 14.9393 13.8866 15.4438 13.622 15.8533C13.3573 16.2628 12.9777 16.5515 12.5492 16.6691C11.7929 16.928 11.0045 17.0363 10.2173 16.9894C10.0145 16.9894 10 16.8377 10 16.6691V12.3713C10 12.2533 10.1014 12.0511 10.1593 12.0511C10.9879 11.9435 11.8262 12.0062 12.6361 12.2365C13.0436 12.3664 13.4008 12.6545 13.6484 13.053C13.896 13.4515 14.0192 13.9364 13.9976 14.4275Z" fill="#2A7AE4"/>
<path d="M25.5 0H8.5C6.24566 0 4.08365 0.895533 2.48959 2.48959C0.895533 4.08365 0 6.24566 0 8.5V25.5C0 27.7543 0.895533 29.9163 2.48959 31.5104C4.08365 33.1045 6.24566 34 8.5 34H25.5C27.7543 34 29.9163 33.1045 31.5104 31.5104C33.1045 29.9163 34 27.7543 34 25.5V8.5C34 6.24566 33.1045 4.08365 31.5104 2.48959C29.9163 0.895533 27.7543 0 25.5 0ZM15.3 18.7C14.4427 19.2463 13.4591 19.5625 12.444 19.618H10.166C9.69 19.618 9.69 19.618 9.69 20.077V24.021C9.69 24.361 9.588 24.463 9.248 24.463H7.004C6.681 24.463 6.596 24.344 6.596 24.038V9.707C6.596 9.367 6.596 9.265 7.021 9.265H12.342C13.3132 9.29132 14.2615 9.56643 15.096 10.064C15.8167 10.4701 16.4168 11.0602 16.8349 11.774C17.253 12.4878 17.4742 13.2998 17.476 14.127C17.5743 15.0162 17.4228 15.9152 17.0384 16.723C16.654 17.5308 16.052 18.2154 15.3 18.7ZM25.364 24.31C23.8851 24.8839 22.2671 24.9965 20.723 24.633C20.2606 24.531 19.805 24.395 19.363 24.225C19.2947 24.1929 19.2346 24.1456 19.1874 24.0867C19.1403 24.0277 19.1073 23.9587 19.091 23.885V21.318C19.635 21.522 20.145 21.76 20.672 21.93C21.5552 22.2123 22.4903 22.2936 23.409 22.168C23.5909 22.134 23.7694 22.0779 23.936 21.998C24.0356 21.9544 24.1222 21.8857 24.1874 21.7986C24.2525 21.7115 24.294 21.609 24.3077 21.5011C24.3214 21.3932 24.3069 21.2836 24.2656 21.1829C24.2243 21.0823 24.1576 20.9941 24.072 20.927C23.6831 20.6578 23.2672 20.4299 22.831 20.247C22.134 19.907 21.42 19.635 20.757 19.244C20.1584 18.9528 19.6696 18.4762 19.3634 17.8852C19.0571 17.2941 18.9497 16.62 19.057 15.963C19.1435 15.3307 19.4061 14.7355 19.815 14.2454C20.2239 13.7554 20.7624 13.3903 21.369 13.192C22.4625 12.823 23.6289 12.7238 24.769 12.903C25.313 12.903 25.84 13.107 26.384 13.209C26.673 13.209 26.775 13.447 26.758 13.736V15.725C26.758 16.099 26.673 16.133 26.333 15.997C25.2712 15.5054 24.0976 15.3059 22.933 15.419C22.768 15.4382 22.6072 15.4841 22.457 15.555C22.355 15.595 22.2653 15.661 22.1966 15.7464C22.128 15.8318 22.0828 15.9337 22.0657 16.0419C22.0485 16.1501 22.0599 16.2609 22.0987 16.3634C22.1375 16.4658 22.2024 16.5563 22.287 16.626C22.7783 16.9524 23.2951 17.238 23.834 17.476C24.48 17.799 25.16 18.054 25.789 18.411C26.3598 18.6707 26.8326 19.1061 27.1384 19.6535C27.4442 20.201 27.5671 20.8318 27.489 21.454C27.4353 22.0747 27.205 22.667 26.8255 23.161C26.4459 23.6551 25.9329 24.0302 25.347 24.242L25.364 24.31Z" fill="#2A7AE4"/>
</g>
<defs>
<clipPath id="clip0_96919_50">
<rect width="34" height="34" fill="white"/>
</clipPath>
</defs>
</svg>
