<svg width="34" height="34" viewBox="0 0 34 34" fill="none" xmlns="http://www.w3.org/2000/svg">
<g clip-path="url(#clip0_96919_84)">
<path d="M13.3654 12C12.7115 12 12.25 12.0502 12 12.1004V15.9163C12.2885 15.9833 12.6731 16 13.1538 16C14.9231 16 16 15.2469 16 13.9247C16 12.6695 15 12 13.3654 12Z" fill="#2A7AE4"/>
<path fill-rule="evenodd" clip-rule="evenodd" d="M7.32769 0.533539C13.7562 -0.177846 20.2438 -0.177846 26.6724 0.533539C30.1844 0.924958 33.0158 3.6852 33.4282 7.20429C34.1906 13.7119 34.1906 20.2861 33.4282 26.7937C33.0158 30.3128 30.1844 33.073 26.6742 33.4663C20.2451 34.1779 13.7568 34.1779 7.32769 33.4663C3.81568 33.073 0.984257 30.3128 0.571841 26.7956C-0.190614 20.2873 -0.190614 13.7125 0.571841 7.20429C0.984257 3.6852 3.81568 0.924958 7.32769 0.533539ZM12.1454 23.4611H9.66348V9.9553C10.5586 9.79282 11.7995 9.67097 13.488 9.67097C15.3189 9.67097 16.6616 10.0568 17.5364 10.788C18.3501 11.4582 18.879 12.5346 18.879 13.8141C18.879 15.1139 18.4722 16.1903 17.6991 16.9215C16.7004 17.9166 15.1358 18.3837 13.366 18.3837C12.8981 18.3837 12.4709 18.3634 12.1454 18.3025V23.4611ZM22.3744 23.4611H19.8722V16.759C19.8722 15.4186 19.8537 14.464 19.7908 13.5704H21.9675L22.0489 15.4592H22.1303C22.6185 14.0578 23.7781 13.347 24.8359 13.347C25.0801 13.347 25.2243 13.3673 25.4277 13.4079V15.7638C25.1866 15.7108 24.9405 15.6836 24.6935 15.6826C23.4933 15.6826 22.6795 16.4543 22.4558 17.5714C22.4053 17.8256 22.3781 18.0839 22.3744 18.3431V23.4611Z" fill="#2A7AE4"/>
</g>
<defs>
<clipPath id="clip0_96919_84">
<rect width="34" height="34" fill="white"/>
</clipPath>
</defs>
</svg>
