<?xml version="1.0" encoding="utf-8"?>
<!-- Generator: Adobe Illustrator 27.9.0, SVG Export Plug-In . SVG Version: 6.00 Build 0)  -->
<svg version="1.1" id="Capa_1" xmlns="http://www.w3.org/2000/svg" xmlns:xlink="http://www.w3.org/1999/xlink" x="0px" y="0px"
	 viewBox="0 0 34 34" style="enable-background:new 0 0 34 34;" xml:space="preserve">
<style type="text/css">
	.st0{fill:#2A7AE4;}
</style>
<g>
	<path class="st0" d="M27,22.7c0.1,1.6,0.2,3.3,0.2,5c0,0.8-0.3,1.6-0.6,2.3c-0.8,1.8-2.8,2.4-4.9,1.4c-1.6-0.8-3.2-1.9-4.9-3
		c-0.6,0.5-1.3,1.2-2.2,1.7c-1.1,0.6-2.2,1.2-3.4,1.6c-2.1,0.6-3.6-0.4-4.2-2.5c-0.5-1.8-0.3-3.5,0-5.3c0.1-0.4,0.1-0.8,0.2-1
		c-1.5-0.7-3-1.3-4.3-2.1c-0.9-0.5-1.6-1.2-2.3-2c-1-1.2-0.8-2.6,0.2-3.8c1.5-1.6,3.4-2.4,5.3-3.1c0.3-0.1,0.6-0.2,1-0.3
		c-0.1-0.9-0.4-1.7-0.4-2.6c0-1.4,0-2.8,0.3-4.1c0.4-2,2-2.9,4-2.4c1.7,0.4,3.2,1.3,4.5,2.4c0.4,0.3,0.8,0.7,1.2,1
		c1.2-0.8,2.3-1.8,3.5-2.5c0.9-0.5,2-0.9,3-1c1.6-0.2,2.8,0.6,3.3,2.2c0.7,2,0.6,4,0.1,6c-0.2,0.8,0,1,0.8,1.4
		c1.6,0.6,3.2,1.3,4.6,2.3c2.5,1.8,2.4,4.2-0.2,5.9C30.4,21,28.7,21.8,27,22.7z M17.5,22.3C17.5,22.3,17.5,22.3,17.5,22.3
		c0.6,0.1,1.2,0,1.8,0c0.5,0,0.9-0.2,1.2-0.7c0.8-1.4,1.6-2.7,2.3-4.1c0.1-0.3,0.2-0.8,0-1.1c-0.8-1.4-1.6-2.8-2.4-4.2
		c-0.2-0.5-0.5-0.6-1-0.6c-1.6,0-3.2,0-4.8,0c-0.3,0-0.8,0.3-1,0.6c-0.9,1.4-1.6,2.8-2.4,4.2c-0.1,0.3-0.2,0.7,0,1
		c0.8,1.5,1.7,3,2.6,4.5c0.1,0.2,0.3,0.3,0.5,0.3C15.4,22.3,16.4,22.3,17.5,22.3z M7.6,12.8c-2,0.6-3.9,1.3-5.5,2.8
		c-1,1-1,1.9,0,2.9c1.5,1.5,3.4,2.1,5.4,2.7c0.6-1.4,1.1-2.7,1.6-4.1c0.1-0.2,0-0.4-0.1-0.6C8.7,15.3,8.2,14.1,7.6,12.8z M26.4,21.2
		c0.4-0.1,0.8-0.2,1.2-0.4c1.6-0.6,3.2-1.3,4.4-2.6c0.7-0.8,0.8-1.4,0.2-2.1c-1.5-1.8-3.7-2.5-5.8-3.2c-0.5,1.3-1,2.6-1.5,3.8
		c-0.1,0.2-0.1,0.4-0.1,0.5C25.3,18.4,25.9,19.8,26.4,21.2z M8.7,23c-0.5,1.9-0.8,3.9-0.2,5.9c0.4,1.2,1.1,1.7,2.2,1.4
		c2.1-0.5,3.8-1.6,5.3-3.2c-0.9-1.1-1.7-2.2-2.6-3.2c-0.2-0.2-0.5-0.3-0.8-0.4C11.3,23.4,10.1,23.2,8.7,23z M25.3,11
		c0.5-1.9,0.7-3.8,0.3-5.7c-0.4-1.6-1.3-2.1-2.9-1.6c-1.8,0.6-3.3,1.8-4.7,3.1c0.9,1.1,1.7,2.2,2.6,3.3c0.2,0.2,0.5,0.3,0.7,0.3
		C22.6,10.6,23.9,10.8,25.3,11z M16,6.8c-1.5-1.4-3-2.6-5-3.1C9.6,3.3,8.8,3.7,8.5,5.1C7.9,7,8.2,9,8.7,11c1.4-0.2,2.8-0.4,4.1-0.6
		c0.2,0,0.5-0.2,0.7-0.4C14.3,8.9,15.1,7.9,16,6.8z M18.1,27.2c1.5,1.3,2.9,2.5,4.8,3c1.4,0.4,2.4-0.1,2.7-1.5
		c0.5-1.9,0.3-3.9-0.2-5.8c-1.4,0.2-2.8,0.4-4.2,0.6c-0.2,0-0.4,0.1-0.5,0.3C19.8,25,19,26.1,18.1,27.2z M21.9,22.1
		c1.1-0.2,2.1-0.4,3.1-0.6c-0.4-1-0.7-1.9-1.1-2.9C23.2,19.8,22.6,20.9,21.9,22.1z M12.1,22.1c-0.7-1.2-1.3-2.3-2-3.4
		c-0.4,1.1-0.7,2-1,3C10.2,21.8,11.1,21.9,12.1,22.1z M17.1,26.2c0.7-0.8,1.3-1.6,2-2.4c-1.4,0-2.6,0-4,0
		C15.8,24.6,16.4,25.4,17.1,26.2z M10.1,15.3c0.7-1.2,1.3-2.3,2-3.5c-1.1,0.2-2,0.4-3,0.5C9.4,13.4,9.7,14.2,10.1,15.3z M21.9,11.8
		c0.7,1.2,1.3,2.3,2,3.4c0.4-1,0.7-1.9,1.1-2.9C23.9,12.2,23,12,21.9,11.8z M15.1,10.2c0.7,0,1.3,0,1.9,0c0.6,0,1.2,0,1.9,0
		c-0.7-0.9-1.3-1.6-2-2.3c-0.4,0.5-0.8,0.9-1.2,1.4C15.6,9.5,15.4,9.8,15.1,10.2z"/>
	<path class="st0" d="M20,17c0,1.6-1.3,2.9-3,3c-1.7,0-3-1.4-3-3.1c0-1.6,1.4-2.9,3.1-2.9C18.7,13.9,20,15.3,20,17z"/>
</g>
</svg>
