<svg width="24" height="24" viewBox="0 0 24 24" fill="none" xmlns="http://www.w3.org/2000/svg">
<g clip-path="url(#clip0_1_231)">
<g clip-path="url(#clip1_1_231)">
<path fill-rule="evenodd" clip-rule="evenodd" d="M15.277 19.208C15.5201 19.1776 15.7658 19.2375 15.9677 19.3763C16.1695 19.5151 16.3134 19.7232 16.372 19.961L16.393 20.076L16.493 20.876C16.524 21.1288 16.4573 21.3838 16.3067 21.5892C16.156 21.7945 15.9327 21.9346 15.6823 21.9809C15.4318 22.0272 15.1732 21.9762 14.9591 21.8384C14.7449 21.7005 14.5915 21.4861 14.53 21.239L14.509 21.124L14.409 20.324C14.3762 20.0611 14.449 19.7959 14.6116 19.5866C14.7742 19.3774 15.0131 19.2412 15.276 19.208H15.277ZM5.487 18.226C5.70103 18.345 5.86394 18.5384 5.94486 18.7696C6.02578 19.0007 6.01907 19.2535 5.926 19.48L5.875 19.585L5.375 20.485C5.25072 20.7071 5.04644 20.8734 4.8038 20.9501C4.56115 21.0268 4.29838 21.0081 4.06903 20.8979C3.83968 20.7876 3.661 20.594 3.5694 20.3566C3.47779 20.1192 3.48015 19.8557 3.576 19.62L3.626 19.515L4.126 18.615C4.18965 18.5001 4.27533 18.3988 4.37814 18.317C4.48095 18.2351 4.59888 18.1744 4.72518 18.1382C4.85148 18.1019 4.98369 18.091 5.11423 18.1059C5.24478 18.1208 5.37111 18.1613 5.486 18.225L5.487 18.226ZM15.97 16.76L15.991 16.875L16.091 17.675C16.122 17.9278 16.0553 18.1828 15.9047 18.3882C15.754 18.5935 15.5307 18.7336 15.2803 18.7799C15.0298 18.8262 14.7712 18.7752 14.5571 18.6374C14.3429 18.4995 14.1895 18.2851 14.128 18.038L14.107 17.923L14.007 17.123C13.976 16.8702 14.0427 16.6152 14.1934 16.4098C14.344 16.2045 14.5673 16.0644 14.8177 16.0181C15.0682 15.9718 15.3268 16.0228 15.5409 16.1606C15.7551 16.2985 15.9085 16.5129 15.97 16.76ZM7.484 14.625C7.69821 14.7439 7.86133 14.9372 7.94244 15.1683C8.02355 15.3995 8.01698 15.6524 7.924 15.879L7.874 15.984L7.374 16.884C7.25085 17.1082 7.04644 17.2767 6.80283 17.3548C6.55922 17.433 6.29494 17.4147 6.06436 17.3039C5.83378 17.1931 5.65444 16.9982 5.56322 16.7591C5.47201 16.5201 5.47587 16.2553 5.574 16.019L5.625 15.913L6.125 15.013C6.18882 14.8982 6.27462 14.7971 6.37751 14.7155C6.48039 14.6339 6.59835 14.5734 6.72464 14.5373C6.85093 14.5013 6.98308 14.4905 7.11354 14.5055C7.244 14.5206 7.36923 14.5612 7.484 14.625ZM13.55 3.238L13.798 3.298L13.863 3.315C14.7444 3.55122 15.5513 4.00766 16.2078 4.64143C16.8643 5.27519 17.3489 6.06548 17.616 6.938C18.915 7.654 20.008 8.494 20.746 9.401C21.5 10.327 21.995 11.474 21.678 12.656C21.451 13.504 20.863 14.134 20.148 14.571C19.437 15.005 18.552 15.283 17.59 15.435C15.661 15.739 13.228 15.568 10.725 14.898C8.221 14.227 6.029 13.158 4.511 11.93C3.753 11.318 3.125 10.635 2.727 9.904C2.326 9.167 2.132 8.327 2.359 7.48C2.681 6.28 3.706 5.53 4.844 5.108C5.926 4.706 7.274 4.529 8.736 4.558C9.37216 3.96556 10.1424 3.53603 10.9807 3.30615C11.8191 3.07627 12.7006 3.05289 13.55 3.238ZM7.487 6.59C6.72 6.651 6.062 6.788 5.54 6.982C4.69 7.298 4.373 7.692 4.291 7.996C4.232 8.216 4.253 8.523 4.484 8.946C4.718 9.376 5.14 9.866 5.768 10.374C7.022 11.388 8.944 12.349 11.242 12.964C13.54 13.58 15.685 13.709 17.278 13.458C18.076 13.333 18.687 13.118 19.105 12.864C19.515 12.612 19.687 12.357 19.746 12.138C19.826 11.838 19.753 11.348 19.195 10.662C18.839 10.225 18.329 9.768 17.681 9.322C17.291 10.584 16.197 11.592 14.637 11.5C12.6874 11.3844 10.7815 10.8741 9.035 10C7.638 9.3 7.193 7.88 7.487 6.59ZM9.697 6.47C9.16 7.188 9.395 7.942 9.931 8.21C11.4349 8.96306 13.0761 9.40295 14.755 9.503C15.353 9.539 15.934 9.003 15.828 8.112C15.752 7.47411 15.4959 6.87106 15.0896 6.37343C14.6834 5.87579 14.1438 5.50415 13.534 5.302L13.28 5.229C12.6274 5.05413 11.9373 5.0788 11.2989 5.29982C10.6604 5.52084 10.1028 5.92807 9.698 6.469L9.697 6.47Z" fill="#464646"/>
</g>
</g>
<defs>
<clipPath id="clip0_1_231">
<rect width="24" height="24" fill="white"/>
</clipPath>
<clipPath id="clip1_1_231">
<rect width="24" height="24" fill="white"/>
</clipPath>
</defs>
</svg>
